<mxfile host="app.diagrams.net" modified="2023-08-22T06:23:04.479Z" agent="Mozilla/5.0 (Macintosh; Intel Mac OS X 10_15_7) AppleWebKit/537.36 (KHTML, like Gecko) Chrome/115.0.0.0 Safari/537.36 Edg/115.0.1901.203" etag="ymzhadnFPfGDaTSbgLjp" version="21.6.8" type="github">
  <diagram id="prtHgNgQTEPvFCAcTncT" name="Page-1">
    <mxGraphModel dx="826" dy="1665" grid="1" gridSize="10" guides="1" tooltips="1" connect="1" arrows="1" fold="1" page="1" pageScale="1" pageWidth="827" pageHeight="1169" math="0" shadow="0">
      <root>
        <mxCell id="0" />
        <mxCell id="1" parent="0" />
        <mxCell id="sE1R3llDGgcR3d6aGBhd-1" value="电销v1交互图" style="swimlane;childLayout=stackLayout;resizeParent=1;resizeParentMax=0;startSize=20;html=1;fillColor=#fff2cc;strokeColor=#d6b656;swimlaneFillColor=none;gradientColor=none;rounded=0;" vertex="1" parent="1">
          <mxGeometry x="230.00000000000045" y="-70" width="1150" height="1000" as="geometry" />
        </mxCell>
        <mxCell id="sE1R3llDGgcR3d6aGBhd-2" value="上报系统" style="swimlane;startSize=20;html=1;fillColor=#fff2cc;strokeColor=#d6b656;" vertex="1" parent="sE1R3llDGgcR3d6aGBhd-1">
          <mxGeometry y="20" width="120" height="980" as="geometry" />
        </mxCell>
        <mxCell id="sE1R3llDGgcR3d6aGBhd-3" value="麻雀系统" style="swimlane;startSize=20;html=1;fillColor=#fff2cc;strokeColor=#d6b656;" vertex="1" parent="sE1R3llDGgcR3d6aGBhd-1">
          <mxGeometry x="120" y="20" width="170" height="980" as="geometry" />
        </mxCell>
        <mxCell id="sE1R3llDGgcR3d6aGBhd-10" value="" style="edgeStyle=orthogonalEdgeStyle;rounded=0;orthogonalLoop=1;jettySize=auto;html=1;fillColor=#ffe6cc;strokeColor=#d79b00;" edge="1" parent="sE1R3llDGgcR3d6aGBhd-3" source="sE1R3llDGgcR3d6aGBhd-8" target="sE1R3llDGgcR3d6aGBhd-9">
          <mxGeometry relative="1" as="geometry" />
        </mxCell>
        <mxCell id="sE1R3llDGgcR3d6aGBhd-8" value="选择人群包" style="rounded=0;whiteSpace=wrap;html=1;fillColor=#ffe6cc;strokeColor=#d79b00;" vertex="1" parent="sE1R3llDGgcR3d6aGBhd-3">
          <mxGeometry x="50" y="60" width="70" height="40" as="geometry" />
        </mxCell>
        <mxCell id="sE1R3llDGgcR3d6aGBhd-14" style="edgeStyle=orthogonalEdgeStyle;rounded=0;orthogonalLoop=1;jettySize=auto;html=1;fillColor=#ffe6cc;strokeColor=#d79b00;" edge="1" parent="sE1R3llDGgcR3d6aGBhd-3" source="sE1R3llDGgcR3d6aGBhd-9" target="sE1R3llDGgcR3d6aGBhd-13">
          <mxGeometry relative="1" as="geometry" />
        </mxCell>
        <mxCell id="sE1R3llDGgcR3d6aGBhd-9" value="选择电销类型" style="rounded=0;whiteSpace=wrap;html=1;fillColor=#ffe6cc;strokeColor=#d79b00;" vertex="1" parent="sE1R3llDGgcR3d6aGBhd-3">
          <mxGeometry x="50" y="140" width="70" height="40" as="geometry" />
        </mxCell>
        <mxCell id="sE1R3llDGgcR3d6aGBhd-16" style="edgeStyle=orthogonalEdgeStyle;rounded=0;orthogonalLoop=1;jettySize=auto;html=1;fillColor=#ffe6cc;strokeColor=#d79b00;" edge="1" parent="sE1R3llDGgcR3d6aGBhd-3" source="sE1R3llDGgcR3d6aGBhd-13" target="sE1R3llDGgcR3d6aGBhd-15">
          <mxGeometry relative="1" as="geometry" />
        </mxCell>
        <mxCell id="sE1R3llDGgcR3d6aGBhd-13" value="配置策略" style="rounded=0;whiteSpace=wrap;html=1;fillColor=#ffe6cc;strokeColor=#d79b00;" vertex="1" parent="sE1R3llDGgcR3d6aGBhd-3">
          <mxGeometry x="49.999999999999545" y="220" width="70" height="40" as="geometry" />
        </mxCell>
        <mxCell id="sE1R3llDGgcR3d6aGBhd-15" value="定时/手动触发推送" style="rounded=0;whiteSpace=wrap;html=1;fillColor=#ffe6cc;strokeColor=#d79b00;" vertex="1" parent="sE1R3llDGgcR3d6aGBhd-3">
          <mxGeometry x="49.999999999999545" y="300" width="70" height="40" as="geometry" />
        </mxCell>
        <mxCell id="sE1R3llDGgcR3d6aGBhd-4" value="老电销系统" style="swimlane;startSize=20;html=1;fillColor=#fff2cc;strokeColor=#d6b656;" vertex="1" parent="sE1R3llDGgcR3d6aGBhd-1">
          <mxGeometry x="290" y="20" width="120" height="980" as="geometry" />
        </mxCell>
        <mxCell id="sE1R3llDGgcR3d6aGBhd-6" value="新电销系统业务" style="swimlane;startSize=20;html=1;fillColor=#fff2cc;strokeColor=#d6b656;rounded=0;" vertex="1" parent="sE1R3llDGgcR3d6aGBhd-1">
          <mxGeometry x="410" y="20" width="500" height="980" as="geometry" />
        </mxCell>
        <mxCell id="sE1R3llDGgcR3d6aGBhd-11" value="5.2获取名单类型" style="rounded=0;whiteSpace=wrap;html=1;fillColor=#f8cecc;strokeColor=#b85450;" vertex="1" parent="sE1R3llDGgcR3d6aGBhd-6">
          <mxGeometry x="90" y="140" width="70" height="40" as="geometry" />
        </mxCell>
        <mxCell id="sE1R3llDGgcR3d6aGBhd-21" value="5.1接收麻雀推送名单" style="rounded=0;whiteSpace=wrap;html=1;fillColor=#f8cecc;strokeColor=#b85450;" vertex="1" parent="sE1R3llDGgcR3d6aGBhd-6">
          <mxGeometry x="89.99999999999955" y="300" width="70" height="40" as="geometry" />
        </mxCell>
        <mxCell id="sE1R3llDGgcR3d6aGBhd-5" value="新电销系统存储" style="swimlane;startSize=20;html=1;fillColor=#fff2cc;strokeColor=#d6b656;" vertex="1" parent="sE1R3llDGgcR3d6aGBhd-1">
          <mxGeometry x="910" y="20" width="120" height="980" as="geometry" />
        </mxCell>
        <mxCell id="sE1R3llDGgcR3d6aGBhd-27" value="rabbitmq" style="strokeWidth=2;html=1;shape=mxgraph.flowchart.direct_data;whiteSpace=wrap;" vertex="1" parent="sE1R3llDGgcR3d6aGBhd-5">
          <mxGeometry x="16.999999999999545" y="286" width="100" height="60" as="geometry" />
        </mxCell>
        <mxCell id="sE1R3llDGgcR3d6aGBhd-23" value="xxl job定时任务" style="swimlane;startSize=20;html=1;fillColor=#fff2cc;strokeColor=#d6b656;" vertex="1" parent="sE1R3llDGgcR3d6aGBhd-1">
          <mxGeometry x="1030" y="20" width="120" height="980" as="geometry" />
        </mxCell>
        <mxCell id="sE1R3llDGgcR3d6aGBhd-12" style="edgeStyle=orthogonalEdgeStyle;rounded=0;orthogonalLoop=1;jettySize=auto;html=1;entryX=0;entryY=0.5;entryDx=0;entryDy=0;" edge="1" parent="sE1R3llDGgcR3d6aGBhd-1" source="sE1R3llDGgcR3d6aGBhd-9" target="sE1R3llDGgcR3d6aGBhd-11">
          <mxGeometry relative="1" as="geometry" />
        </mxCell>
        <mxCell id="sE1R3llDGgcR3d6aGBhd-22" style="edgeStyle=orthogonalEdgeStyle;rounded=0;orthogonalLoop=1;jettySize=auto;html=1;" edge="1" parent="sE1R3llDGgcR3d6aGBhd-1" source="sE1R3llDGgcR3d6aGBhd-15" target="sE1R3llDGgcR3d6aGBhd-21">
          <mxGeometry relative="1" as="geometry" />
        </mxCell>
        <mxCell id="sE1R3llDGgcR3d6aGBhd-25" style="edgeStyle=orthogonalEdgeStyle;rounded=0;orthogonalLoop=1;jettySize=auto;html=1;" edge="1" parent="sE1R3llDGgcR3d6aGBhd-1" source="sE1R3llDGgcR3d6aGBhd-21">
          <mxGeometry relative="1" as="geometry">
            <mxPoint x="924.9999999999995" y="340" as="targetPoint" />
          </mxGeometry>
        </mxCell>
      </root>
    </mxGraphModel>
  </diagram>
</mxfile>
